<svg width="25" height="25" viewBox="0 0 25 25" fill="none" xmlns="http://www.w3.org/2000/svg">
<path d="M12.11 13.6237C15.8707 13.6237 18.9219 10.5726 18.9219 6.81187C18.9219 3.05115 15.8707 0 12.11 0C8.34928 0 5.29812 3.05115 5.29812 6.81187C5.29812 10.5726 8.34928 13.6237 12.11 13.6237ZM18.165 15.1375H15.5585C14.5083 15.62 13.3399 15.8944 12.11 15.8944C10.8801 15.8944 9.71638 15.62 8.66149 15.1375H6.055C2.71056 15.1375 0 17.8481 0 21.1925V21.9494C0 23.2029 1.01705 24.22 2.27062 24.22H21.9494C23.2029 24.22 24.22 23.2029 24.22 21.9494V21.1925C24.22 17.8481 21.5094 15.1375 18.165 15.1375Z" fill="black"/>
</svg>
