<svg width="11" height="11" viewBox="0 0 11 11" fill="none" xmlns="http://www.w3.org/2000/svg">
<path d="M5.5 6.1875C7.20801 6.1875 8.59375 4.80176 8.59375 3.09375C8.59375 1.38574 7.20801 0 5.5 0C3.79199 0 2.40625 1.38574 2.40625 3.09375C2.40625 4.80176 3.79199 6.1875 5.5 6.1875ZM8.25 6.875H7.06621C6.58926 7.09414 6.05859 7.21875 5.5 7.21875C4.94141 7.21875 4.41289 7.09414 3.93379 6.875H2.75C1.23105 6.875 0 8.10605 0 9.625V9.96875C0 10.5381 0.461914 11 1.03125 11H9.96875C10.5381 11 11 10.5381 11 9.96875V9.625C11 8.10605 9.76895 6.875 8.25 6.875Z" fill="white"/>
</svg>
