<svg width="15" height="11" viewBox="0 0 15 11" fill="none" xmlns="http://www.w3.org/2000/svg">
<path d="M14.625 4.46875H13.125V3.09375C13.125 2.90469 12.9563 2.75 12.75 2.75H12C11.7937 2.75 11.625 2.90469 11.625 3.09375V4.46875H10.125C9.91875 4.46875 9.75 4.62344 9.75 4.8125V5.5C9.75 5.68906 9.91875 5.84375 10.125 5.84375H11.625V7.21875C11.625 7.40781 11.7937 7.5625 12 7.5625H12.75C12.9563 7.5625 13.125 7.40781 13.125 7.21875V5.84375H14.625C14.8313 5.84375 15 5.68906 15 5.5V4.8125C15 4.62344 14.8313 4.46875 14.625 4.46875ZM5.25 5.5C6.90703 5.5 8.25 4.26895 8.25 2.75C8.25 1.23105 6.90703 0 5.25 0C3.59297 0 2.25 1.23105 2.25 2.75C2.25 4.26895 3.59297 5.5 5.25 5.5ZM7.35 6.1875H6.95859C6.43828 6.40664 5.85938 6.53125 5.25 6.53125C4.64062 6.53125 4.06406 6.40664 3.54141 6.1875H3.15C1.41094 6.1875 0 7.48086 0 9.075V9.96875C0 10.5381 0.503906 11 1.125 11H9.375C9.99609 11 10.5 10.5381 10.5 9.96875V9.075C10.5 7.48086 9.08906 6.1875 7.35 6.1875Z" fill="white"/>
</svg>
