<svg width="26" height="26" viewBox="0 0 26 26" fill="none" xmlns="http://www.w3.org/2000/svg">
<path d="M24.6644 21.6162L19.7963 16.748C19.5765 16.5283 19.2787 16.4062 18.9662 16.4062H18.1703C19.5179 14.6826 20.3187 12.5146 20.3187 10.1562C20.3187 4.5459 15.7728 0 10.1625 0C4.55212 0 0.00622559 4.5459 0.00622559 10.1562C0.00622559 15.7666 4.55212 20.3125 10.1625 20.3125C12.5209 20.3125 14.6888 19.5117 16.4125 18.1641V18.96C16.4125 19.2725 16.5345 19.5703 16.7543 19.79L21.6224 24.6582C22.0814 25.1172 22.8236 25.1172 23.2777 24.6582L24.6595 23.2764C25.1185 22.8174 25.1185 22.0752 24.6644 21.6162ZM10.1625 16.4062C6.71033 16.4062 3.91248 13.6133 3.91248 10.1562C3.91248 6.7041 6.70544 3.90625 10.1625 3.90625C13.6146 3.90625 16.4125 6.69922 16.4125 10.1562C16.4125 13.6084 13.6195 16.4062 10.1625 16.4062Z" fill="black"/>
</svg>
